<svg width="899px" height="332px"
 viewBox="0.00 0.00 898.73 332.00" xmlns="http://www.w3.org/2000/svg" xmlns:xlink="http://www.w3.org/1999/xlink">
<g id="graph0" class="graph" transform="scale(1.0 1.0) rotate(0) translate(4 328)">
<title>G</title>
<polygon fill="#ffffff" stroke="transparent" points="-4,4 -4,-328 894.7309,-328 894.7309,4 -4,4"/>
<!-- A -->
<g id="node1" class="node">
<title>A</title>
<path fill="transparent" stroke="#0000cd" d="M756.2629,-180C756.2629,-180 677.9167,-180 677.9167,-180 671.9167,-180 665.9167,-174 665.9167,-168 665.9167,-168 665.9167,-156 665.9167,-156 665.9167,-150 671.9167,-144 677.9167,-144 677.9167,-144 756.2629,-144 756.2629,-144 762.2629,-144 768.2629,-150 768.2629,-156 768.2629,-156 768.2629,-168 768.2629,-168 768.2629,-174 762.2629,-180 756.2629,-180"/>
<text text-anchor="middle" x="717.0898" y="-157.8" font-family="Times,serif" font-size="14.00" fill="#0000cd">Archivees Data</text>
</g>
<!-- V -->
<g id="node2" class="node">
<title>V</title>
<polygon fill="#a2cd5a" stroke="#cd0000" points="623.3038,-252 464.3861,-252 434.8758,-216 593.7935,-216 623.3038,-252"/>
<text text-anchor="middle" x="529.0898" y="-229.8" font-family="Times,serif" font-size="14.00" fill="#cd0000">Valide Project</text>
</g>
<!-- A&#45;&gt;V -->
<g id="edge1" class="edge">
<title>A&#45;&gt;V</title>
<path fill="none" stroke="#000000" d="M669.6495,-180.1686C644.1703,-189.9266 612.5854,-202.023 585.8141,-212.2758"/>
<polygon fill="#000000" stroke="#000000" points="584.2758,-209.117 576.189,-215.962 586.7794,-215.654 584.2758,-209.117"/>
</g>
<!-- C -->
<g id="node3" class="node">
<title>C</title>
<path fill="#bfbfbf" stroke="#cd0000" d="M604.1865,-324C604.1865,-324 453.9931,-324 453.9931,-324 447.9931,-324 441.9931,-318 441.9931,-312 441.9931,-312 441.9931,-300 441.9931,-300 441.9931,-294 447.9931,-288 453.9931,-288 453.9931,-288 604.1865,-288 604.1865,-288 610.1865,-288 616.1865,-294 616.1865,-300 616.1865,-300 616.1865,-312 616.1865,-312 616.1865,-318 610.1865,-324 604.1865,-324"/>
<text text-anchor="middle" x="529.0898" y="-301.8" font-family="Times,serif" font-size="14.00" fill="#cd0000">Software is ready for launch</text>
</g>
<!-- V&#45;&gt;C -->
<g id="edge2" class="edge">
<title>V&#45;&gt;C</title>
<path fill="none" stroke="#000000" d="M529.0898,-252.1686C529.0898,-259.869 529.0898,-269.0257 529.0898,-277.5834"/>
<polygon fill="#000000" stroke="#000000" points="525.5899,-277.5867 529.0898,-287.5867 532.5899,-277.5868 525.5899,-277.5867"/>
</g>
<!-- CRQ -->
<g id="node4" class="node">
<title>CRQ</title>
<path fill="#87ceeb" stroke="#cd0000" d="M150.2695,-36C150.2695,-36 11.9101,-36 11.9101,-36 5.9101,-36 -.0899,-30 -.0899,-24 -.0899,-24 -.0899,-12 -.0899,-12 -.0899,-6 5.9101,0 11.9101,0 11.9101,0 150.2695,0 150.2695,0 156.2695,0 162.2695,-6 162.2695,-12 162.2695,-12 162.2695,-24 162.2695,-24 162.2695,-30 156.2695,-36 150.2695,-36"/>
<text text-anchor="middle" x="81.0898" y="-13.8" font-family="Times,serif" font-size="14.00" fill="#cd0000">Creation of the quick start</text>
</g>
<!-- PDOC -->
<g id="node5" class="node">
<title>PDOC</title>
<polygon fill="#a2cd5a" stroke="#cd0000" points="364.4953,-108 154.6513,-108 115.6843,-72 325.5283,-72 364.4953,-108"/>
<text text-anchor="middle" x="240.0898" y="-85.8" font-family="Times,serif" font-size="14.00" fill="#cd0000">Project documented</text>
</g>
<!-- CRQ&#45;&gt;PDOC -->
<g id="edge3" class="edge">
<title>CRQ&#45;&gt;PDOC</title>
<path fill="none" stroke="#000000" d="M121.2122,-36.1686C142.383,-45.7554 168.5381,-57.5992 190.9201,-67.7345"/>
<polygon fill="#000000" stroke="#000000" points="189.7026,-71.0252 200.2559,-71.962 192.5901,-64.6485 189.7026,-71.0252"/>
</g>
<!-- DOCR -->
<g id="node6" class="node">
<title>DOCR</title>
<path fill="transparent" stroke="#cd0000" d="M375.4924,-180C375.4924,-180 262.6872,-180 262.6872,-180 256.6872,-180 250.6872,-174 250.6872,-168 250.6872,-168 250.6872,-156 250.6872,-156 250.6872,-150 256.6872,-144 262.6872,-144 262.6872,-144 375.4924,-144 375.4924,-144 381.4924,-144 387.4924,-150 387.4924,-156 387.4924,-156 387.4924,-168 387.4924,-168 387.4924,-174 381.4924,-180 375.4924,-180"/>
<text text-anchor="middle" x="319.0898" y="-157.8" font-family="Times,serif" font-size="14.00" fill="#cd0000">Documentation ready</text>
</g>
<!-- PDOC&#45;&gt;DOCR -->
<g id="edge4" class="edge">
<title>PDOC&#45;&gt;DOCR</title>
<path fill="none" stroke="#000000" d="M260.0248,-108.1686C269.5681,-116.8663 281.1497,-127.4217 291.5204,-136.8735"/>
<polygon fill="#000000" stroke="#000000" points="289.4126,-139.6879 299.1611,-143.8372 294.1278,-134.5143 289.4126,-139.6879"/>
</g>
<!-- DOCR&#45;&gt;V -->
<g id="edge5" class="edge">
<title>DOCR&#45;&gt;V</title>
<path fill="none" stroke="#000000" d="M371.8106,-180.0757C400.6436,-189.9613 436.5379,-202.2679 466.7529,-212.6274"/>
<polygon fill="#000000" stroke="#000000" points="465.7527,-215.9844 476.3473,-215.9169 468.023,-209.3627 465.7527,-215.9844"/>
</g>
<!-- JR -->
<g id="node7" class="node">
<title>JR</title>
<path fill="#87ceeb" stroke="#0000cd" d="M464.7811,-36C464.7811,-36 393.3985,-36 393.3985,-36 387.3985,-36 381.3985,-30 381.3985,-24 381.3985,-24 381.3985,-12 381.3985,-12 381.3985,-6 387.3985,0 393.3985,0 393.3985,0 464.7811,0 464.7811,0 470.7811,0 476.7811,-6 476.7811,-12 476.7811,-12 476.7811,-24 476.7811,-24 476.7811,-30 470.7811,-36 464.7811,-36"/>
<text text-anchor="middle" x="429.0898" y="-13.8" font-family="Times,serif" font-size="14.00" fill="#0000cd">Jacoco Report</text>
</g>
<!-- EMP -->
<g id="node8" class="node">
<title>EMP</title>
<polygon fill="#a2cd5a" stroke="#0000cd" points="675.7249,-108 428.3846,-108 382.4547,-72 629.795,-72 675.7249,-108"/>
<text text-anchor="middle" x="529.0898" y="-85.8" font-family="Times,serif" font-size="14.00" fill="#0000cd">Evaluate Maven Project</text>
</g>
<!-- JR&#45;&gt;EMP -->
<g id="edge6" class="edge">
<title>JR&#45;&gt;EMP</title>
<path fill="none" stroke="#000000" d="M454.324,-36.1686C466.8778,-45.2073 482.2181,-56.2524 495.7289,-65.9802"/>
<polygon fill="#000000" stroke="#000000" points="493.7032,-68.8345 503.8637,-71.8372 497.7934,-63.1537 493.7032,-68.8345"/>
</g>
<!-- M -->
<g id="node9" class="node">
<title>M</title>
<path fill="transparent" stroke="#0000cd" d="M562.0546,-180C562.0546,-180 496.125,-180 496.125,-180 490.125,-180 484.125,-174 484.125,-168 484.125,-168 484.125,-156 484.125,-156 484.125,-150 490.125,-144 496.125,-144 496.125,-144 562.0546,-144 562.0546,-144 568.0546,-144 574.0546,-150 574.0546,-156 574.0546,-156 574.0546,-168 574.0546,-168 574.0546,-174 568.0546,-180 562.0546,-180"/>
<text text-anchor="middle" x="529.0898" y="-157.8" font-family="Times,serif" font-size="14.00" fill="#0000cd">Maven ready</text>
</g>
<!-- EMP&#45;&gt;M -->
<g id="edge7" class="edge">
<title>EMP&#45;&gt;M</title>
<path fill="none" stroke="#000000" d="M529.0898,-108.1686C529.0898,-115.869 529.0898,-125.0257 529.0898,-133.5834"/>
<polygon fill="#000000" stroke="#000000" points="525.5899,-133.5867 529.0898,-143.5867 532.5899,-133.5868 525.5899,-133.5867"/>
</g>
<!-- M&#45;&gt;V -->
<g id="edge8" class="edge">
<title>M&#45;&gt;V</title>
<path fill="none" stroke="#000000" d="M529.0898,-180.1686C529.0898,-187.869 529.0898,-197.0257 529.0898,-205.5834"/>
<polygon fill="#000000" stroke="#000000" points="525.5899,-205.5867 529.0898,-215.5867 532.5899,-205.5868 525.5899,-205.5867"/>
</g>
<!-- JU -->
<g id="node10" class="node">
<title>JU</title>
<path fill="#87ceeb" stroke="#0000cd" d="M551.8631,-36C551.8631,-36 506.3165,-36 506.3165,-36 500.3165,-36 494.3165,-30 494.3165,-24 494.3165,-24 494.3165,-12 494.3165,-12 494.3165,-6 500.3165,0 506.3165,0 506.3165,0 551.8631,0 551.8631,0 557.8631,0 563.8631,-6 563.8631,-12 563.8631,-12 563.8631,-24 563.8631,-24 563.8631,-30 557.8631,-36 551.8631,-36"/>
<text text-anchor="middle" x="529.0898" y="-13.8" font-family="Times,serif" font-size="14.00" fill="#0000cd">JUnit test</text>
</g>
<!-- JU&#45;&gt;EMP -->
<g id="edge9" class="edge">
<title>JU&#45;&gt;EMP</title>
<path fill="none" stroke="#000000" d="M529.0898,-36.1686C529.0898,-43.869 529.0898,-53.0257 529.0898,-61.5834"/>
<polygon fill="#000000" stroke="#000000" points="525.5899,-61.5867 529.0898,-71.5867 532.5899,-61.5868 525.5899,-61.5867"/>
</g>
<!-- BT -->
<g id="node11" class="node">
<title>BT</title>
<path fill="#87ceeb" stroke="#0000cd" d="M659.0828,-36C659.0828,-36 593.0968,-36 593.0968,-36 587.0968,-36 581.0968,-30 581.0968,-24 581.0968,-24 581.0968,-12 581.0968,-12 581.0968,-6 587.0968,0 593.0968,0 593.0968,0 659.0828,0 659.0828,0 665.0828,0 671.0828,-6 671.0828,-12 671.0828,-12 671.0828,-24 671.0828,-24 671.0828,-30 665.0828,-36 659.0828,-36"/>
<text text-anchor="middle" x="626.0898" y="-13.8" font-family="Times,serif" font-size="14.00" fill="#0000cd">Build Maven</text>
</g>
<!-- BT&#45;&gt;EMP -->
<g id="edge10" class="edge">
<title>BT&#45;&gt;EMP</title>
<path fill="none" stroke="#000000" d="M601.6126,-36.1686C589.5503,-45.1221 574.8358,-56.0442 561.8212,-65.7045"/>
<polygon fill="#000000" stroke="#000000" points="559.5028,-63.0665 553.5592,-71.8372 563.675,-68.6873 559.5028,-63.0665"/>
</g>
<!-- JA -->
<g id="node12" class="node">
<title>JA</title>
<path fill="#87ceeb" stroke="#0000cd" d="M857.4733,-36C857.4733,-36 726.7063,-36 726.7063,-36 720.7063,-36 714.7063,-30 714.7063,-24 714.7063,-24 714.7063,-12 714.7063,-12 714.7063,-6 720.7063,0 726.7063,0 726.7063,0 857.4733,0 857.4733,0 863.4733,0 869.4733,-6 869.4733,-12 869.4733,-12 869.4733,-24 869.4733,-24 869.4733,-30 863.4733,-36 857.4733,-36"/>
<text text-anchor="middle" x="792.0898" y="-13.8" font-family="Times,serif" font-size="14.00" fill="#0000cd">Jacoco Report Archivate</text>
</g>
<!-- DA -->
<g id="node13" class="node">
<title>DA</title>
<polygon fill="#a2cd5a" stroke="#0000cd" points="890.8721,-108 724.2487,-108 693.3075,-72 859.9309,-72 890.8721,-108"/>
<text text-anchor="middle" x="792.0898" y="-85.8" font-family="Times,serif" font-size="14.00" fill="#0000cd">Data Archivate</text>
</g>
<!-- JA&#45;&gt;DA -->
<g id="edge11" class="edge">
<title>JA&#45;&gt;DA</title>
<path fill="none" stroke="#000000" d="M792.0898,-36.1686C792.0898,-43.869 792.0898,-53.0257 792.0898,-61.5834"/>
<polygon fill="#000000" stroke="#000000" points="788.5899,-61.5867 792.0898,-71.5867 795.5899,-61.5868 788.5899,-61.5867"/>
</g>
<!-- DA&#45;&gt;A -->
<g id="edge12" class="edge">
<title>DA&#45;&gt;A</title>
<path fill="none" stroke="#000000" d="M773.1641,-108.1686C764.1041,-116.8663 753.1089,-127.4217 743.2633,-136.8735"/>
<polygon fill="#000000" stroke="#000000" points="740.7994,-134.387 736.0094,-143.8372 745.6472,-139.4367 740.7994,-134.387"/>
</g>
<!-- CRM -->
<g id="node14" class="node">
<title>CRM</title>
<path fill="#87ceeb" stroke="#0000cd" d="M330.1634,-36C330.1634,-36 192.0162,-36 192.0162,-36 186.0162,-36 180.0162,-30 180.0162,-24 180.0162,-24 180.0162,-12 180.0162,-12 180.0162,-6 186.0162,0 192.0162,0 192.0162,0 330.1634,0 330.1634,0 336.1634,0 342.1634,-6 342.1634,-12 342.1634,-12 342.1634,-24 342.1634,-24 342.1634,-30 336.1634,-36 330.1634,-36"/>
<text text-anchor="middle" x="261.0898" y="-13.8" font-family="Times,serif" font-size="14.00" fill="#0000cd">Creation of the README</text>
</g>
<!-- CRM&#45;&gt;PDOC -->
<g id="edge13" class="edge">
<title>CRM&#45;&gt;PDOC</title>
<path fill="none" stroke="#000000" d="M255.7906,-36.1686C253.52,-43.9537 250.8152,-53.2271 248.2958,-61.8653"/>
<polygon fill="#000000" stroke="#000000" points="244.9004,-61.0067 245.4603,-71.5867 251.6204,-62.9668 244.9004,-61.0067"/>
</g>
</g>
</svg>
